PathFileType	4	(X/Y/Z)	c:/Users/goper/Files/vsCode/490R/osim_files/C10/C10_Static.trc
DataRate	CameraRate	NumFrames	NumMarkers	Units                	OrigDataRate	OrigDataStartFrame	OrigNumFrames
250.00	250.00	4	36	mm	250.0	493	1971
                Frame#	Time	LPSIS			LASIS			LTH1			LTH2			LTH3			LTH4			LLFE			LMFE			LSH1			LSH2			LSH3			LSH4			LLMAL			LMMAL			LCAL			LMTP5			LTOE			LMTP1			RPSIS			RASIS			RTH1			RTH2			RTH3			RTH4			RLFE			RMFE			RSH1			RSH2			RSH3			RSH4			RLMAL			RMMAL			RCAL			RMTP1			RTOE			RMTP5		
		X1	Y1	Z1	X2	Y2	Z2	X3	Y3	Z3	X4	Y4	Z4	X5	Y5	Z5	X6	Y6	Z6	X7	Y7	Z7	X8	Y8	Z8	X9	Y9	Z9	X10	Y10	Z10	X11	Y11	Z11	X12	Y12	Z12	X13	Y13	Z13	X14	Y14	Z14	X15	Y15	Z15	X16	Y16	Z16	X17	Y17	Z17	X18	Y18	Z18	X19	Y19	Z19	X20	Y20	Z20	X21	Y21	Z21	X22	Y22	Z22	X23	Y23	Z23	X24	Y24	Z24	X25	Y25	Z25	X26	Y26	Z26	X27	Y27	Z27	X28	Y28	Z28	X29	Y29	Z29	X30	Y30	Z30	X31	Y31	Z31	X32	Y32	Z32	X33	Y33	Z33	X34	Y34	Z34	X35	Y35	Z35	X36	Y36	Z36

493	1.96800	-321.93887	1029.05005	445.60776	-181.33136	999.96216	292.52835	-270.28864	795.82257	256.98004	-265.64420	749.77649	247.02867	-209.57121	795.87689	254.84380	-214.00629	749.05768	250.85873	-244.17032	492.91861	273.29727	-229.59859	466.52426	387.80759	-308.88202	417.53961	260.05814	-309.16711	371.05185	249.33580	-246.48926	412.09854	261.71002	-255.37001	368.04080	252.52048	-284.46487	92.92768	239.70082	-272.68585	89.91582	319.70950	-347.61441	38.58735	279.21249	-177.11314	28.23967	206.35759	-121.87861	46.90286	266.40558	-155.62125	26.66575	315.79919	-309.54666	1029.29712	525.19623	-140.22838	998.61047	632.96350	-240.26572	757.07867	691.21973	-233.16475	713.07965	694.66351	-179.20592	760.44678	692.73517	-179.25914	716.43958	696.84552	-216.42316	485.96396	667.91382	-205.65054	463.56378	557.15588	-294.16483	404.90826	691.45801	-290.65479	361.89590	700.44952	-231.45883	400.37009	689.07825	-238.45583	360.04614	697.93561	-273.90762	91.31841	699.76965	-254.94255	89.61965	619.92047	-329.49075	40.61766	664.60071	-135.00584	33.40856	637.18756	-104.53664	45.89198	678.80042	-156.31361	30.68998	740.60059
494	1.97200	-321.93204	1029.06238	445.59927	-181.30342	999.96313	292.49432	-270.28604	795.79608	256.96951	-265.64951	749.77454	247.02394	-209.57982	795.86414	254.84082	-213.97308	749.05505	250.84966	-244.16539	492.92902	273.26682	-229.59616	466.53726	387.80096	-308.77039	417.56320	259.95618	-309.14413	371.06097	249.31587	-246.49959	412.08838	261.69427	-255.35480	368.03839	252.51862	-284.48410	92.92114	239.69225	-272.69437	89.92473	319.69382	-347.79742	38.63117	279.10052	-177.13147	28.24506	206.34801	-121.86605	46.94345	266.35876	-156.38347	26.11547	315.74045	-309.53653	1029.29419	525.16602	-140.17545	998.64124	632.94421	-240.24623	757.13043	691.19446	-233.16074	713.11902	694.61737	-179.12915	760.50470	692.70923	-179.23801	716.47723	696.81610	-216.41975	485.97665	667.86462	-205.63353	463.56741	557.16174	-294.14688	404.91864	691.42645	-290.67850	361.92780	700.40643	-231.43770	400.40033	689.07123	-238.41994	360.08524	697.90741	-273.92551	91.33047	699.74042	-254.94470	89.61282	619.90582	-329.50372	40.64567	664.53558	-134.99741	33.42350	637.14685	-104.54670	45.89496	678.75177	-156.29359	30.70242	740.55438
495	1.97600	-321.88666	1029.04700	445.58984	-181.26343	999.95911	292.50504	-270.29807	795.81696	256.95633	-265.62534	749.76184	247.02580	-209.56848	795.85919	254.84949	-213.96928	749.05322	250.85204	-244.15388	492.91055	273.27713	-229.57133	466.53305	387.80524	-308.67609	417.61212	259.91351	-309.13315	371.07697	249.30658	-246.49863	412.07843	261.70422	-255.34790	368.02930	252.51717	-284.48770	92.92665	239.68893	-272.65958	89.94023	319.68182	-347.60974	38.62630	279.16315	-177.14378	28.22147	206.33589	-121.85448	46.95303	266.35666	-156.26355	26.21083	315.76535	-309.49527	1029.29163	525.14575	-140.10696	998.64764	632.91498	-240.19693	757.12799	691.16107	-233.08228	713.13739	694.59448	-179.07158	760.49335	692.69489	-179.16608	716.48560	696.78796	-216.35988	485.98792	667.84460	-205.64288	463.56583	557.14764	-294.13931	404.92319	691.40802	-290.64691	361.92374	700.37408	-231.39754	400.42740	689.04230	-238.34349	360.12082	697.88397	-273.90082	91.32945	699.71643	-254.96553	89.61956	619.89771	-329.50674	40.65113	664.49670	-134.97548	33.45682	637.11481	-104.49796	45.94386	678.75610	-156.27263	30.72910	740.54779
496	1.98000	-321.85590	1029.04944	445.55191	-181.22366	999.96191	292.50681	-270.25336	795.81683	256.96356	-265.59399	749.78479	247.02933	-209.52101	795.86975	254.83710	-213.93199	749.04181	250.85493	-244.15971	492.92444	273.27850	-229.56108	466.54800	387.80063	-308.70999	417.62662	259.95078	-309.14224	371.10214	249.33015	-246.48178	412.08197	261.71249	-255.33110	368.04822	252.53320	-284.48389	92.91140	239.69206	-272.63855	89.93537	319.66870	-347.74911	38.61700	279.03751	-177.15514	28.24252	206.33565	-121.81647	46.98127	266.35461	-156.19397	26.24458	315.74512	-309.45499	1029.27600	525.13434	-140.03035	998.67188	632.90979	-240.17526	757.13678	691.13379	-233.05002	713.14398	694.57611	-178.98698	760.54126	692.70117	-179.14000	716.49847	696.78516	-216.33777	485.99692	667.84412	-205.65445	463.56546	557.16064	-294.07510	404.92584	691.40497	-290.65475	361.93845	700.34717	-231.31488	400.47748	689.03625	-238.31131	360.14017	697.87756	-273.87119	91.34158	699.70624	-254.95824	89.59740	619.91388	-329.50595	40.66693	664.48315	-134.88019	33.49559	637.13007	-104.49759	45.95951	678.75623	-156.25603	30.74102	740.54022
